<svg xmlns="http://www.w3.org/2000/svg" width="50mm" height="50mm" viewBox="0 0 100 100">
<path style="fill:#ffffff; stroke:none;" d="M0 0L0 100L100 100L100 0L0 0z"></path>
<path style="fill:#000000; stroke:none;" d="M10 10L10 90L90 90L90 10L10 10z"></path>
<path style="fill:#ffffff; stroke:none;" d="M40 20L40 30L30 30L30 40L20 40L20 50L50 50L50 80L80 80L80 70L70 70L70 60L80 60L80 40L70 40L70 30L80 30L80 20L40 20z"></path>
<path style="fill:#000000; stroke:none;" d="M40 30L40 40L50 40L50 50L60 50L60 60L70 60L70 50L60 50L60 30L40 30z"></path>
<path style="fill:#ffffff; stroke:none;" d="M20 70L20 80L30 80L30 70L20 70z"></path>
</svg>